<?xml version="1.0" encoding="UTF-8" standalone="no"?>
<!-- Created with Inkscape (http://www.inkscape.org/) -->

<svg
   xmlns:dc="http://purl.org/dc/elements/1.1/"
   xmlns:cc="http://creativecommons.org/ns#"
   xmlns:rdf="http://www.w3.org/1999/02/22-rdf-syntax-ns#"
   xmlns:svg="http://www.w3.org/2000/svg"
   xmlns="http://www.w3.org/2000/svg"
   xmlns:sodipodi="http://sodipodi.sourceforge.net/DTD/sodipodi-0.dtd"
   xmlns:inkscape="http://www.inkscape.org/namespaces/inkscape"
   width="79.870293mm"
   height="80.747437mm"
   viewBox="0 0 80.682553 81.568616"
   version="1.1"
   id="svg856"
   inkscape:version="0.92.4 (5da689c313, 2019-01-14)"
   sodipodi:docname="rotate_cclockwise.svg">
  <defs
     id="defs850" />
  <sodipodi:namedview
     id="base"
     pagecolor="#ffffff"
     bordercolor="#666666"
     borderopacity="1.0"
     inkscape:pageopacity="0.0"
     inkscape:pageshadow="2"
     inkscape:zoom="0.80072787"
     inkscape:cx="384.3957"
     inkscape:cy="52.256074"
     inkscape:document-units="mm"
     inkscape:current-layer="svg856"
     showgrid="false"
     inkscape:window-width="1920"
     inkscape:window-height="1025"
     inkscape:window-x="0"
     inkscape:window-y="27"
     inkscape:window-maximized="1" />
  <metadata
     id="metadata853">
    <rdf:RDF>
      <cc:Work
         rdf:about="">
        <dc:format>image/svg+xml</dc:format>
        <dc:type
           rdf:resource="http://purl.org/dc/dcmitype/StillImage" />
        <dc:title></dc:title>
      </cc:Work>
    </rdf:RDF>
  </metadata>
  <path
     style="stroke-width:0.07000434"
     id="path2"
     d="M 77.502085,9.6044667 C 75.661783,10.634279 61.509074,24.001149 54.575758,31.895341 47.338878,40.135168 40.328201,49.576687 36.388227,54.999933 L 26.412413,67.94055 45.871759,63.994741 c 4.589725,-0.930668 8.211935,-1.28779 9.11974,3.306516 0.907796,4.59429 -0.335949,6.636994 -4.930239,7.544788 L 16.966736,81.38529 v 0 l -0.103817,0.02047 C 12.268636,82.313555 7.8234411,79.335195 6.9156382,74.740909 L 0.35077193,41.516555 c -0.90780373,-4.594285 -0.252185,-6.589177 4.34210897,-7.496968 4.594304,-0.907798 6.6847101,1.478114 7.5925061,6.072412 l 4.315645,21.673594 9.2973,-12.869936 C 46.334916,22.781248 50.054135,19.399822 63.414142,7.2581223 c 5.764431,-5.23877 9.870136,-10.4119117 16.076479,-4.8861196 2.618578,3.2729362 0.452957,5.1242905 -1.988536,7.232464"
     inkscape:connector-curvature="0"
     sodipodi:nodetypes="csccscccccccccccscc" />
</svg>
