<?xml version="1.0" encoding="UTF-8" standalone="no"?>
<!-- Created with Inkscape (http://www.inkscape.org/) -->

<svg
   xmlns:dc="http://purl.org/dc/elements/1.1/"
   xmlns:cc="http://creativecommons.org/ns#"
   xmlns:rdf="http://www.w3.org/1999/02/22-rdf-syntax-ns#"
   xmlns:svg="http://www.w3.org/2000/svg"
   xmlns="http://www.w3.org/2000/svg"
   xmlns:sodipodi="http://sodipodi.sourceforge.net/DTD/sodipodi-0.dtd"
   xmlns:inkscape="http://www.inkscape.org/namespaces/inkscape"
   width="50.863453mm"
   height="119.83934mm"
   viewBox="0 0 50.863451 119.83934"
   version="1.1"
   id="svg856"
   inkscape:version="0.92.4 (5da689c313, 2019-01-14)"
   sodipodi:docname="rotate_clockwise.svg">
  <defs
     id="defs850" />
  <sodipodi:namedview
     id="base"
     pagecolor="#ffffff"
     bordercolor="#666666"
     borderopacity="1.0"
     inkscape:pageopacity="0.0"
     inkscape:pageshadow="2"
     inkscape:zoom="0.80072787"
     inkscape:cx="282.13543"
     inkscape:cy="402.38375"
     inkscape:document-units="mm"
     inkscape:current-layer="svg856"
     showgrid="false"
     inkscape:window-width="1920"
     inkscape:window-height="1025"
     inkscape:window-x="0"
     inkscape:window-y="27"
     inkscape:window-maximized="1" />
  <metadata
     id="metadata853">
    <rdf:RDF>
      <cc:Work
         rdf:about="">
        <dc:format>image/svg+xml</dc:format>
        <dc:type
           rdf:resource="http://purl.org/dc/dcmitype/StillImage" />
        <dc:title />
      </cc:Work>
    </rdf:RDF>
  </metadata>
  <path
     style="stroke-width:0.00490061"
     id="path2"
     d="m 5.6758382,16.441679 c 5.7689738,2.03427 11.1946698,5.338719 15.8273158,9.992963 16.545113,16.5278 16.55915,43.330083 0.03135,59.875202 0,0 -4.548462,4.526763 -4.548462,4.526763 0,0 -0.007,-13.308545 -0.007,-13.308545 -0.0024,-4.68313 -3.787972,-8.464687 -8.4710998,-8.462236 -4.683123,0.0025 -8.464689,3.787977 -8.462235,8.471098 0,0 0.01766,33.734376 0.01766,33.734376 0,0 0,0 0,0 0,0 8.4e-5,0.1058 8.4e-5,0.1058 0.0025,4.68313 3.787982,8.46469 8.471098,8.46224 0,0 33.8666758,-0.0177 33.8666758,-0.0177 4.683116,-0.002 8.464683,-3.78796 8.462227,-8.47109 -0.0024,-4.68313 -3.787976,-8.46469 -8.471102,-8.46223 0,0 -13.546668,0.007 -13.546668,0.007 0,0 4.654249,-4.632654 4.654249,-4.632654 C 56.638843,75.099561 56.619198,37.58165 33.456041,14.442729 26.996822,7.990279 19.400845,3.337589 11.27664,0.48433903 6.8572832,-1.074391 2.0430912,1.256469 0.4843432,5.649369 c -1.558742,4.3929 0.772135,9.23356 5.165033,10.7923 0,0 0.02643,10e-6 0.02643,10e-6"
     inkscape:connector-curvature="0" />
</svg>
