<?xml version="1.0" encoding="UTF-8" standalone="no"?>
<!-- Created with Inkscape (http://www.inkscape.org/) -->

<svg
   xmlns:dc="http://purl.org/dc/elements/1.1/"
   xmlns:cc="http://creativecommons.org/ns#"
   xmlns:rdf="http://www.w3.org/1999/02/22-rdf-syntax-ns#"
   xmlns:svg="http://www.w3.org/2000/svg"
   xmlns="http://www.w3.org/2000/svg"
   xmlns:sodipodi="http://sodipodi.sourceforge.net/DTD/sodipodi-0.dtd"
   xmlns:inkscape="http://www.inkscape.org/namespaces/inkscape"
   width="50.674347mm"
   height="118.63216mm"
   viewBox="0 0 51.189692 119.83862"
   version="1.1"
   id="svg856"
   inkscape:version="0.92.4 (5da689c313, 2019-01-14)"
   sodipodi:docname="rotate_cclockwise.svg">
  <defs
     id="defs850" />
  <sodipodi:namedview
     id="base"
     pagecolor="#ffffff"
     bordercolor="#666666"
     borderopacity="1.0"
     inkscape:pageopacity="0.0"
     inkscape:pageshadow="2"
     inkscape:zoom="0.6821046"
     inkscape:cx="-264.84998"
     inkscape:cy="339.1749"
     inkscape:document-units="mm"
     inkscape:current-layer="svg856"
     showgrid="false"
     inkscape:window-width="1920"
     inkscape:window-height="1025"
     inkscape:window-x="0"
     inkscape:window-y="27"
     inkscape:window-maximized="1" />
  <metadata
     id="metadata853">
    <rdf:RDF>
      <cc:Work
         rdf:about="">
        <dc:format>image/svg+xml</dc:format>
        <dc:type
           rdf:resource="http://purl.org/dc/dcmitype/StillImage" />
        <dc:title />
      </cc:Work>
    </rdf:RDF>
  </metadata>
  <path
     style="stroke-width:0.07000434"
     id="path2"
     d="m 45.48858,16.450478 c -5.775393,2.01596 -11.211548,5.303185 -15.858938,9.942713 -16.597453,16.475232 -16.696512,43.277336 -0.22128,59.874803 0,0 4.534081,4.541175 4.534081,4.541175 0,0 0.04918,-13.308462 0.04918,-13.308462 0.01731,-4.6831 3.814806,-8.452629 8.497909,-8.435325 4.683086,0.01731 8.452629,3.814809 8.435317,8.4979 0,0 -0.124665,33.734158 -0.124665,33.734158 0,0 0,0 0,0 0,0 -4.73e-4,0.10581 -4.73e-4,0.10581 -0.01731,4.68308 -3.814811,8.45261 -8.497892,8.43531 0,0 -33.8664466,-0.12517 -33.8664466,-0.12517 -4.683082,-0.0173 -8.45262698,-3.8148 -8.435312980909,-8.49789 C 0.01736942,106.5324 3.8148614,102.76287 8.4979554,102.78018 c 0,0 13.5465756,0.0501 13.5465756,0.0501 0,0 -4.639529,-4.647394 -4.639529,-4.647394 C -5.6603156,74.946404 -5.5216636,37.428746 17.714779,14.363418 24.194432,7.9314885 31.805132,3.3029185 39.938355,0.47544847 c 4.42427,-1.54468997 9.231049,0.80142003 10.775849,5.19925003 1.544801,4.3978195 -0.801421,9.2310495 -5.199241,10.7758495 0,0 -0.02642,-5e-5 -0.02642,-5e-5"
     inkscape:connector-curvature="0" />
</svg>
