<?xml version="1.0" encoding="UTF-8" standalone="no"?>
<!-- Created with Inkscape (http://www.inkscape.org/) -->

<svg
   xmlns:dc="http://purl.org/dc/elements/1.1/"
   xmlns:cc="http://creativecommons.org/ns#"
   xmlns:rdf="http://www.w3.org/1999/02/22-rdf-syntax-ns#"
   xmlns:svg="http://www.w3.org/2000/svg"
   xmlns="http://www.w3.org/2000/svg"
   xmlns:sodipodi="http://sodipodi.sourceforge.net/DTD/sodipodi-0.dtd"
   xmlns:inkscape="http://www.inkscape.org/namespaces/inkscape"
   version="1.1"
   id="svg2"
   width="233.92"
   height="233.92"
   viewBox="0 0 233.92 233.92"
   sodipodi:docname="susan.svg"
   inkscape:version="0.92.4 (5da689c313, 2019-01-14)">
  <metadata
     id="metadata8">
    <rdf:RDF>
      <cc:Work
         rdf:about="">
        <dc:format>image/svg+xml</dc:format>
        <dc:type
           rdf:resource="http://purl.org/dc/dcmitype/StillImage" />
        <dc:title></dc:title>
      </cc:Work>
    </rdf:RDF>
  </metadata>
  <defs
     id="defs6" />
  <sodipodi:namedview
     pagecolor="#ffffff"
     bordercolor="#666666"
     borderopacity="1"
     objecttolerance="10"
     gridtolerance="10"
     guidetolerance="10"
     inkscape:pageopacity="0"
     inkscape:pageshadow="2"
     inkscape:window-width="1920"
     inkscape:window-height="1025"
     id="namedview4"
     showgrid="false"
     inkscape:zoom="2.8220746"
     inkscape:cx="50.0209"
     inkscape:cy="128.8878"
     inkscape:window-x="0"
     inkscape:window-y="27"
     inkscape:window-maximized="1"
     inkscape:current-layer="svg2" />
  <path
     style="fill:#f4f4f4;stroke-width:1;fill-opacity:0;stroke:#000000;stroke-opacity:1;stroke-miterlimit:4;stroke-dasharray:none"
     d="m 116.46458,233.16562 c -0.0795,-0.0753 -2.23258,-0.23238 -4.78458,-0.34913 -4.51164,-0.2064 -9.90837,-0.68912 -10.88,-0.97319 -0.50362,-0.14724 -1.024768,-0.23808 -4.580595,-0.79849 -7.040819,-1.10966 -8.420131,-2.1824 -9.956576,-7.74362 -2.183495,-7.90323 -2.192256,-7.91537 -7.095091,-9.82799 -1.742256,-0.67967 -4.103738,-1.66956 -5.247738,-2.19975 -1.144,-0.5302 -3.16,-1.46121 -4.48,-2.06893 -3.237037,-1.49029 -6.781802,-3.84663 -15.892765,-10.56452 -5.264521,-3.88175 -4.964211,-3.79745 -9.387235,-2.635 -9.964883,2.61898 -9.500557,2.7992 -17.326763,-6.725 -8.927709,-10.86468 -19.3761644,-31.42429 -20.2697333,-39.8851 -0.2664579,-2.52298 0.1867117,-3.28691 4.6963483,-7.91693 4.631091,-4.75472 4.290191,-3.37909 3.254144,-13.1314 C 13.57241,119.48342 13.617239,117.49651 15.063316,104 15.767792,97.424986 15.754787,97.378362 12.139553,93.518426 6.5001238,87.497286 5.7896179,85.772819 7.036535,81.132893 7.4399242,79.631834 7.9689779,78.238534 8.2122099,78.036669 8.4568694,77.833619 8.5701043,77.403894 8.4656608,77.074822 8.3579235,76.735373 8.4316214,76.48 8.6373213,76.48 c 0.1982473,0 0.2846157,-0.122701 0.1919299,-0.272672 -0.092686,-0.149968 0.1116432,-0.822192 0.4540643,-1.49383 0.3424211,-0.671642 0.7885145,-1.736938 0.9913185,-2.367332 2.076347,-6.45408 10.914722,-20.983785 17.977799,-29.554316 6.165042,-7.480832 6.530428,-7.627133 14.220293,-5.693792 6.340244,1.594025 6.37993,1.59431 8.321527,0.05956 C 53.068554,35.359894 64.822077,26.989534 65.849277,26.436076 66.328173,26.178045 70.32,24.419486 74.72,22.528168 85.078851,18.075468 84.431683,18.592053 85.552029,13.881769 87.849024,4.2244547 88.235181,3.8671862 98.08,2.291004 c 11.36966,-1.82031379 26.23069,-1.65943846 38.37525,0.4154243 10.47035,1.7888277 10.36906,1.7026552 12.8229,10.9096787 0.59296,2.224843 1.33995,4.336813 1.65998,4.693266 0.32003,0.356453 4.61387,2.639764 9.54187,5.074024 4.928,2.43426 10.112,5.23407 11.52,6.221801 1.408,0.987731 4.36,3.039173 6.56,4.558764 2.2,1.519587 4.63271,3.238345 5.40602,3.819462 1.84003,1.38273 3.0048,1.371101 7.71398,-0.07701 8.11551,-2.495584 8.73461,-2.252835 15.51768,6.084473 7.26903,8.934637 14.5912,21.456816 18.06197,30.889114 0.74477,2.024 1.71191,4.606221 2.14921,5.738266 2.064,5.3431 0.74369,9.439091 -4.62399,14.344947 -3.39894,3.106502 -3.39013,3.077817 -2.61706,8.521956 1.35928,9.57241 1.43303,14.67339 0.3313,22.91483 -1.00179,7.49384 -1.33325,10.7004 -1.17238,11.34139 0.10111,0.40282 1.84123,2.44379 3.86696,4.5355 4.16955,4.30537 4.65321,5.10201 4.67888,7.70651 0.0186,1.88465 -0.1592,2.50179 -2.85528,9.91245 -1.09114,2.9992 -5.23136,11.61839 -6.11656,12.73357 -0.14432,0.18182 -0.37286,0.69058 -0.50786,1.13058 -0.135,0.44 -0.78203,1.592 -1.43784,2.56 -0.65581,0.968 -2.24248,3.416 -3.52595,5.44 -2.02608,3.1951 -4.74469,6.90182 -6.12617,8.3528 -0.23418,0.24596 -1.07226,1.2392 -1.8624,2.2072 -3.53624,4.33228 -5.41301,5.76 -7.57161,5.76 -0.43892,0 -3.47242,-0.66178 -6.74112,-1.47061 -5.94309,-1.47061 -5.94309,-1.47061 -6.77543,-0.64029 -0.74031,0.73849 -1.85519,1.58012 -7.8831,5.9509 -7.31553,5.30442 -6.58802,4.89656 -18.22925,10.21987 -3.696,1.69011 -6.97684,3.22249 -7.29076,3.40528 -0.61123,0.3559 -1.53929,2.79963 -3.05548,8.04559 -1.45276,5.0265 -2.73867,6.28143 -7.26732,7.09224 -9.33416,1.6712 -10.57645,1.81804 -17.89728,2.11552 -2.46904,0.10033 -4.8561,0.25477 -5.30458,0.3432 -0.44849,0.0884 -0.88049,0.0992 -0.96,0.0239 z m 5.64895,-52.37729 c 40.15514,-3.2275 67.41592,-41.3278 57.3905,-80.21028 C 171.0506,67.792406 137.87312,47.157549 104.48,53.916589 68.352691,61.229053 45.836858,97.266646 55.055971,133.02195 c 7.687597,29.81547 36.352874,50.2343 67.057559,47.76638 z"
     id="path817"
     inkscape:connector-curvature="0" />
</svg>
